<svg width="346" height="355" xmlns="http://www.w3.org/2000/svg" xmlns:xlink="http://www.w3.org/1999/xlink" xml:space="preserve" overflow="hidden"><g transform="translate(-70 -26)"><g><g><g><path d="M239.789 235.142 229.333 235.142 229.333 248.386 239.789 248.386 239.789 235.142ZM194.015 335.402C209.118 355.385 235.723 350.854 235.723 350.854 238.976 322.623 227.474 313.445 227.474 313.445 220.387 328.432 231.076 346.555 231.076 346.555 215.043 331.569 194.015 335.402 194.015 335.402M221.665 180.306 216.554 175.543C204.239 178.68 195.409 189.601 195.409 189.601 201.218 175.775 198.081 162.88 195.526 156.025L191.808 153.005C181.12 173.22 192.97 195.409 192.97 195.409 209.234 191.459 217.599 184.953 221.665 180.306M255.937 364.679C255.357 355.966 253.846 349.46 251.871 344.348L241.764 344.348C244.552 353.991 250.71 361.194 250.71 361.194 232.237 349.344 212.255 356.663 212.255 356.663 230.495 373.741 255.937 364.679 255.937 364.679M253.382 214.927 253.382 329.942 310.424 329.942C316.814 330.058 323.552 335.17 323.552 335.17L323.552 243.158C289.048 242.461 282.077 214.927 282.077 214.927L253.382 214.927ZM280.451 284.866 276.152 284.866 276.152 307.171 270.692 307.171 270.692 284.866 266.51 284.866 266.51 279.754 280.451 279.754 280.451 284.866ZM307.288 307.52C305.777 307.52 303.919 307.055 302.641 306.126L302.641 301.014C303.919 301.943 305.196 302.524 306.707 302.524 308.449 302.524 309.844 301.363 309.844 299.504 309.844 297.413 308.101 296.599 306.591 295.554 303.454 293.463 301.595 291.371 301.595 287.421 301.595 283.123 304.151 279.405 308.682 279.405 310.424 279.405 311.935 279.87 313.445 280.799L313.445 286.027C312.399 285.098 311.005 284.285 309.495 284.285 307.752 284.285 306.707 285.33 306.707 286.957 306.707 291.488 314.955 291.72 314.955 299.155 315.188 303.919 312.399 307.52 307.288 307.52M311.354 246.527 316.814 246.527 316.814 273.829 311.354 273.829 311.354 246.527ZM294.276 246.527 299.736 246.527C303.221 246.527 309.379 246.876 309.379 254.311 309.379 257.332 308.217 259.887 305.545 261.398L310.308 273.829 304.616 273.829 299.852 261.165 299.736 261.165 299.736 273.829 294.276 273.829 294.276 246.527ZM299.969 307.171 294.16 307.171 293.114 302.524 287.654 302.524 286.724 307.171 281.38 307.171 287.77 279.87 293.463 279.87 299.969 307.171ZM293.23 246.527 293.23 251.639 287.77 251.639 287.77 257.564 292.533 257.564 292.533 262.676 287.77 262.676 287.77 268.833 293.346 268.833 293.346 273.945 282.31 273.945 282.31 246.643 274.758 273.945 270.343 273.945 262.443 246.643 268.252 246.643 271.505 259.771C271.97 261.282 272.202 262.908 272.435 264.418L272.551 264.418C272.899 262.792 272.899 261.282 273.364 259.655L276.617 246.643 293.23 246.643ZM385.707 155.445 368.629 174.033 368.745 203.774C368.745 203.774 368.164 208.654 367.119 211.093L378.155 211.093 409.523 179.725 385.707 155.445ZM240.137 297.761 229.682 297.761 229.682 311.005 240.137 311.005 240.137 297.761ZM257.215 169.27 279.173 190.878 279.173 174.149 257.215 152.192 257.215 169.27ZM239.905 354.455C241.299 354.455 242.345 353.294 242.345 352.016 242.345 350.622 241.183 349.576 239.905 349.576 238.511 349.576 237.465 350.738 237.465 352.016 237.465 353.294 238.511 354.455 239.905 354.455M200.173 177.402C200.173 178.796 201.334 179.842 202.612 179.842 204.006 179.842 205.052 178.68 205.052 177.402 205.052 176.008 204.006 174.962 202.612 174.962 201.218 174.962 200.173 176.008 200.173 177.402M240.021 336.332C240.137 337.494 240.37 336.099 240.37 336.099L240.37 319.951 237.698 322.971C239.208 326.922 239.789 332.73 240.021 336.332M279.173 199.127 279.173 195.758 262.908 179.493 224.918 179.493 246.411 199.127 279.173 199.127ZM196.803 153.005C196.803 153.005 195.409 144.175 204.587 130.931L173.336 130.931C173.452 130.815 174.73 134.533 196.803 153.005M169.734 201.683C164.158 226.08 184.721 243.507 184.721 243.507 208.421 227.823 208.073 213.184 208.073 213.184 192.04 217.367 185.07 237.233 185.07 237.233 186.115 215.276 169.734 201.683 169.734 201.683M188.09 212.952C192.97 191.459 179.145 175.311 179.145 175.311 169.386 198.314 186.58 219.109 186.58 219.109 212.604 207.724 214.811 193.318 214.811 193.318 198.43 194.596 188.09 212.952 188.09 212.952M190.298 223.176C190.298 221.781 189.136 220.736 187.858 220.736 186.464 220.736 185.418 221.898 185.418 223.176 185.418 224.57 186.58 225.615 187.858 225.615 189.252 225.615 190.298 224.57 190.298 223.176M317.395 348.995 333.776 348.995C333.776 348.995 334.822 341.908 339.469 341.908L407.432 341.908 407.432 222.362 400.694 215.276 400.694 333.66 339.817 333.66C339.817 333.66 331.685 334.357 325.179 342.141 325.179 342.141 320.183 334.705 309.495 334.008L250.129 334.008 250.129 216.321 242.81 223.64 242.81 341.908 309.146 341.908C309.263 341.908 317.395 342.257 317.395 348.995M210.977 129.421C193.899 147.777 203.077 173.103 203.077 173.103 231.424 171.361 238.511 158.581 238.511 158.581 222.479 154.167 206.562 167.875 206.562 167.875 218.412 149.287 210.977 129.421 210.977 129.421M291.023 290.907 290.442 286.724 290.326 286.724 289.745 290.907 288.583 298.226 292.417 298.226 291.023 290.907ZM447.978 342.373C452.16 339.817 455.994 336.332 459.363 331.569 459.363 331.569 450.417 330.407 439.845 333.892L447.978 342.373ZM465.288 233.98C465.288 233.98 457.853 214.23 441.704 210.512 441.704 210.512 441.704 225.151 465.753 240.254 465.753 240.254 485.851 222.362 479.81 198.081 479.694 197.965 463.662 212.023 465.288 233.98M435.082 292.766C435.082 292.766 425.672 304.035 434.385 331.104 434.385 331.104 461.338 330.291 472.259 307.752 472.259 307.752 450.998 308.101 438.103 325.992 437.987 325.876 444.957 306.01 435.082 292.766M464.591 258.377C464.591 258.377 460.641 237.698 445.422 231.076 445.422 231.076 442.866 245.482 464.01 264.535 464.01 264.535 487.013 250.361 485.154 225.383 485.154 225.499 466.915 236.536 464.591 258.377M445.654 252.104C445.654 252.104 440.659 265.929 458.085 288.351 458.085 288.351 483.179 278.36 485.619 253.498 485.619 253.498 465.753 261.165 459.712 282.31 459.712 282.31 459.479 261.282 445.654 252.104M461.57 270.692C462.965 270.692 464.01 269.53 464.01 268.136 464.01 266.742 462.848 265.696 461.57 265.696 460.176 265.696 459.131 266.858 459.131 268.136 459.015 269.53 460.176 270.692 461.57 270.692M447.048 313.096C447.048 311.702 446.003 310.657 444.609 310.657 443.214 310.657 442.169 311.819 442.169 313.096 442.169 314.491 443.331 315.536 444.609 315.536 445.887 315.652 447.048 314.491 447.048 313.096M237.001 165.203C236.071 166.017 229.101 172.29 218.645 173.568L222.246 176.937 259.887 176.821 248.154 165.203 242.229 159.278C242.229 159.162 238.046 164.506 237.001 165.203M382.57 286.957 381.873 291.139 380.711 298.458 384.545 298.458 383.151 291.139 382.57 286.957ZM304.035 254.311C304.035 252.336 303.105 250.71 300.433 250.942L299.736 250.942 299.736 258.261 300.666 258.261C303.105 258.261 304.035 256.635 304.035 254.311M327.386 242.461 327.386 335.17C327.386 335.17 332.614 329.942 339.933 329.942L397.441 329.942 397.441 214.927 366.422 214.927C366.422 214.927 357.592 241.996 327.386 242.461M334.241 246.643 339.701 246.643 339.701 268.949 345.394 268.949 345.394 274.061 334.357 274.061 334.357 246.643ZM351.783 307.288 350.505 287.538 350.389 287.538 349.576 294.276 347.252 307.288 343.07 307.288 340.398 294.16 339.469 288.118 339.469 287.654 339.352 287.654 338.539 307.404 332.73 307.404 335.17 280.102 342.257 280.102 344.929 296.251 345.045 296.251 347.252 280.102 354.572 280.102 357.476 307.404 351.783 307.404ZM386.404 307.288 385.358 302.641 379.898 302.641 378.969 307.288 373.625 307.288 379.898 279.986 385.591 279.986 392.097 307.288 386.404 307.288ZM369.907 246.643 375.948 246.643 377.458 250.477C377.923 251.871 378.504 253.265 378.736 254.66L378.853 254.66C379.201 253.265 379.55 251.871 380.13 250.477L381.757 246.643 387.566 246.643 381.757 259.887 388.03 273.945 381.757 273.945 380.014 269.646C379.55 268.252 379.201 266.974 378.736 265.58L378.62 265.58C378.272 266.974 377.923 268.252 377.458 269.646L375.832 273.945 369.791 273.945 375.6 259.887 369.907 246.643ZM371.417 279.986 371.417 285.098 365.957 285.098 365.957 291.023 370.836 291.023 370.836 296.135 365.957 296.135 365.957 302.292 371.533 302.292 371.533 307.404 360.613 307.404 360.613 279.986 371.417 279.986ZM357.476 269.53C360.148 269.53 360.148 267.555 360.148 265.464L360.148 246.643 365.608 246.643 365.608 266.626C365.608 269.53 365.26 274.41 357.476 274.41 352.48 274.41 349.46 272.086 349.46 266.974L349.46 246.643 354.92 246.643 354.92 264.302C354.804 266.393 354.572 269.53 357.476 269.53M253.846 149.055C253.846 149.055 251.407 152.656 242.112 154.631L253.846 165.552 253.846 149.055ZM283.704 196.687C283.704 225.615 301.827 238.976 324.249 238.976 346.672 238.976 364.795 225.615 364.795 196.687L364.795 114.202 283.704 114.202C283.704 114.202 283.704 167.759 283.704 196.687M303.221 138.25 303.221 126.052 341.211 126.052 341.211 143.478 353.758 143.478 353.758 156.025 341.56 156.025 341.56 161.602 353.758 161.602 353.758 175.195 341.56 175.195 341.56 215.973 331.104 215.973 316.582 201.451 303.338 214.695 293.695 205.168 315.652 183.211 327.038 194.596 327.038 138.25 303.221 138.25ZM249.083 202.148 258.726 210.629 280.567 210.629C279.521 208.886 279.87 202.264 279.87 202.264L249.083 202.148ZM424.742 311.238C424.742 311.238 423 313.096 422.419 315.885L427.647 321.345C427.414 317.976 426.485 314.491 424.742 311.238M218.296 333.544C226.429 306.242 216.67 295.321 216.67 295.321 207.027 308.798 214.462 328.548 214.462 328.548 201.102 311.005 179.842 311.121 179.842 311.121 191.343 333.427 218.296 333.544 218.296 333.544M216.902 152.889C245.133 156.142 254.311 144.64 254.311 144.64 239.324 137.553 221.201 148.242 221.201 148.242 236.187 132.093 232.354 111.181 232.354 111.181 212.371 126.4 216.902 152.889 216.902 152.889M276.036 352.713C277.43 369.21 295.67 379.55 295.67 379.55 274.293 374.67 258.029 388.495 258.029 388.495 281.148 398.254 301.827 381.06 301.827 381.06 290.558 354.92 276.036 352.713 276.036 352.713M204.123 313.561C216.786 288.118 209.234 275.688 209.234 275.688 197.384 287.305 201.334 307.985 201.334 307.985 191.227 288.467 170.315 284.866 170.315 284.866 177.518 308.798 204.123 313.561 204.123 313.561M261.049 344.464 257.564 344.464C257.332 360.148 272.435 372.347 272.435 372.347 252.104 363.866 233.748 374.554 233.748 374.554 254.776 388.147 278.243 374.786 278.243 374.786 273.596 355.85 265.58 347.717 261.049 344.464M208.77 356.198C208.77 356.198 212.604 353.875 218.296 353.061L212.023 351.551 211.442 352.364C211.79 351.9 212.023 351.551 212.023 351.551L184.373 380.595C184.373 380.595 181.236 385.126 184.256 388.147 184.256 388.147 187.045 390.47 190.878 387.798L217.715 364.33C215.043 362.936 209.118 357.941 208.77 356.198M193.551 291.488C210.512 268.601 205.168 255.008 205.168 255.008 191.576 264.418 191.808 285.446 191.808 285.446 185.302 264.418 165.203 257.215 165.203 257.215 168.224 282.193 193.551 291.488 193.551 291.488M207.724 127.911 175.078 95.265C175.078 95.265 161.37 105.024 172.058 127.911L207.724 127.911ZM222.479 116.061 203.309 96.5429C191.459 84.6929 177.286 92.4767 177.286 92.4767L215.159 130.118C217.715 120.592 222.479 116.061 222.479 116.061M187.161 271.273C187.161 272.667 188.323 273.713 189.601 273.713 190.995 273.713 192.04 272.551 192.04 271.273 192.04 269.879 190.995 268.833 189.601 268.833 188.206 268.833 187.161 269.995 187.161 271.273M187.045 267.904C207.608 248.27 204.82 233.98 204.82 233.98 189.717 240.835 186.348 261.63 186.348 261.63 183.559 239.789 165.087 229.217 165.087 229.217 163.809 254.311 187.045 267.904 187.045 267.904M205.168 316.001C205.168 317.395 206.33 318.441 207.608 318.441 209.002 318.441 210.048 317.279 210.048 316.001 210.048 314.607 208.886 313.561 207.608 313.561 206.33 313.561 205.168 314.607 205.168 316.001M413.125 352.248C414.519 352.248 415.564 351.086 415.564 349.808 415.564 348.414 414.403 347.369 413.125 347.369 411.731 347.369 410.685 348.53 410.685 349.808 410.569 351.202 411.731 352.248 413.125 352.248M426.253 348.995 417.539 341.908C417.772 344.116 418.004 346.439 418.469 348.995 418.469 348.995 421.606 349.344 426.253 348.995M450.766 305.08C450.766 305.08 454.135 284.285 442.053 272.899 442.053 272.899 434.734 285.563 447.978 310.657 447.978 310.657 474.35 305.196 481.204 281.148 481.32 281.264 460.409 285.33 450.766 305.08M284.982 374.438C284.982 373.044 283.82 371.998 282.542 371.998 281.148 371.998 280.102 373.16 280.102 374.438 280.102 375.832 281.264 376.878 282.542 376.878 283.936 376.878 284.982 375.832 284.982 374.438M402.669 359.451C402.669 359.451 408.013 352.945 410.685 343.883L400.578 343.767C398.951 348.763 397.789 355.036 397.441 363.052 397.441 363.052 419.282 370.255 436.709 357.592L429.97 352.132C422.535 351.783 412.311 352.829 402.669 359.451M409.988 319.138 409.988 332.382 469.238 381.525 481.088 381.525 420.792 319.138 409.988 319.138ZM323.204 376.297 323.204 382.454C320.299 377.923 309.146 361.658 296.599 360.845 296.599 360.845 300.898 375.483 319.835 384.081 319.835 384.081 296.135 385.591 286.492 398.603 286.492 398.603 307.171 400.461 323.32 384.429L323.32 394.536 329.594 394.536 329.594 376.413 323.204 376.413ZM333.66 383.964C352.48 375.251 356.663 360.613 356.663 360.613 342.024 361.658 329.477 383.616 329.477 383.616 345.858 400.345 367.119 398.254 367.119 398.254 357.36 385.358 333.66 383.964 333.66 383.964M357.941 378.853C357.941 378.853 376.064 368.048 376.994 351.551 376.994 351.551 362.588 354.107 351.9 380.479 351.9 380.479 373.044 397.208 395.814 386.985 395.814 386.869 379.317 373.508 357.941 378.853M381.176 371.069C381.176 371.069 395.233 358.986 395.35 343.883L390.354 344.116C385.823 348.066 379.201 356.547 375.483 373.741 375.483 373.741 399.183 386.52 419.863 372.463 419.863 372.463 401.158 362.123 381.176 371.069M368.629 373.508C368.629 374.903 369.791 375.948 371.069 375.948 372.463 375.948 373.508 374.786 373.508 373.508 373.508 372.114 372.347 371.069 371.069 371.069 369.791 370.952 368.629 372.114 368.629 373.508M456.459 192.273C456.459 192.273 469.238 168.573 455.181 147.893 455.181 147.893 444.841 166.481 453.787 186.58 453.787 186.58 440.078 170.664 423.581 172.523 423.697 172.523 428.692 186.348 456.459 192.273M396.163 136.856 403.714 129.072C397.325 127.562 385.242 125.471 375.6 132.674 375.6 132.674 380.595 138.367 396.163 136.856M446.235 177.053C447.629 177.053 448.675 175.892 448.675 174.614 448.675 173.22 447.513 172.174 446.235 172.174 444.841 172.174 443.795 173.336 443.795 174.614 443.795 175.892 444.841 177.053 446.235 177.053M463.197 215.856C463.197 215.856 479.926 194.712 469.703 171.825 469.703 171.825 456.342 188.439 461.687 209.699 461.687 209.699 450.998 191.576 434.385 190.646 434.385 190.646 436.941 205.052 463.197 215.856M427.066 96.7753C434.85 100.609 441.239 96.5429 441.239 96.5429 449.953 92.2444 456.226 98.1694 456.226 98.1694 462.267 102.933 461.338 109.206 461.338 109.206 461.338 113.969 459.944 114.318 459.944 114.318 457.04 116.293 457.737 112.924 457.737 112.924 457.853 112.924 458.434 110.6 458.434 110.6 459.595 99.7959 449.837 98.1694 449.837 98.1694 439.497 96.3106 436.941 105.837 436.941 105.837 436.244 108.509 436.244 110.833 436.476 112.808L423.581 99.912 424.161 110.833 452.973 139.645 463.313 139.645 452.857 129.189C458.317 130.931 463.197 131.047 463.197 131.047 477.835 130.118 479.462 116.061 479.462 116.061 483.295 101.422 469.47 89.5723 469.47 89.5723 460.176 81.5561 446.119 80.9752 446.119 80.9752 426.136 78.6517 419.05 65.8722 419.05 65.8722 416.726 71.6811 417.307 80.2782 417.307 80.2782 418.585 93.6385 427.066 96.7753 427.066 96.7753M459.712 219.923C459.712 221.317 460.873 222.362 462.151 222.362 463.545 222.362 464.591 221.201 464.591 219.923 464.591 218.529 463.429 217.483 462.151 217.483 460.757 217.367 459.712 218.529 459.712 219.923M405.225 127.097 411.266 120.94C408.71 112.227 403.482 101.771 390.47 95.4973 390.586 95.4973 390.006 114.086 405.225 127.097M420.444 298.923 409.988 298.923 409.988 312.167 420.444 312.167 420.444 298.923ZM428.576 167.643C433.223 168.921 438.916 169.967 445.77 170.199 445.77 170.199 448.907 160.789 447.513 149.403L438.451 158.117C439.381 160.44 440.659 162.764 442.169 164.971 442.169 164.971 439.613 162.88 435.663 160.673L428.576 167.643ZM229.798 139.412C229.798 140.806 230.959 141.852 232.237 141.852 233.632 141.852 234.677 140.69 234.677 139.412 234.677 138.018 233.515 136.972 232.237 136.972 230.959 136.856 229.798 138.018 229.798 139.412M448.675 142.433 421.838 115.596 397.789 141.736 423.581 167.178 448.675 142.433ZM391.632 143.246 386.172 149.752 415.448 179.028 421.373 173.103 391.632 143.246ZM419.979 234.096 409.523 234.096 409.523 247.34 419.979 247.34 419.979 234.096ZM294.624 107.58C294.624 107.58 302.873 113.04 317.279 103.049 317.279 103.049 299.388 95.7297 294.624 107.58M387.914 116.99C387.914 116.99 379.782 114.55 369.558 118.036L369.558 127.446C375.832 127.33 382.105 125.819 393.607 119.778 393.607 119.778 388.147 93.4061 364.098 86.5517 363.982 86.4355 368.048 107.347 387.914 116.99M279.87 128.608 280.102 119.546C269.995 116.525 259.655 118.5 259.655 118.5 279.173 108.393 282.774 87.4811 282.774 87.4811 258.842 94.8003 254.079 121.405 254.079 121.405 265.115 126.749 273.713 128.492 279.87 128.608M272.435 133.836C258.958 124.193 239.208 131.628 239.208 131.628 256.751 118.268 256.635 97.0076 256.635 97.0076 234.329 108.393 234.212 135.346 234.212 135.346 261.398 143.595 272.435 133.836 272.435 133.836M270.808 113.853C270.808 115.247 271.97 116.293 273.248 116.293 274.642 116.293 275.688 115.131 275.688 113.853 275.688 112.459 274.526 111.414 273.248 111.414 271.97 111.414 270.808 112.459 270.808 113.853M276.849 111.297 295.554 111.065C289.745 107.58 283.355 107.696 283.355 107.696 304.383 101.19 310.308 82.4855 310.308 82.4855 285.446 85.6223 276.152 110.833 276.152 110.833 276.501 111.065 276.501 111.065 276.849 111.297M376.994 112.575C376.994 111.181 375.948 110.136 374.554 110.136 373.16 110.136 372.114 111.297 372.114 112.575 372.114 113.969 373.276 115.015 374.554 115.015 375.832 115.015 376.994 113.853 376.994 112.575M363.866 107.58C363.866 107.58 357.476 107.464 351.667 110.949L370.372 111.181C370.72 110.949 370.72 110.949 371.069 110.716 371.069 110.716 361.775 85.3899 336.913 82.3693 336.797 82.3693 342.838 101.074 363.866 107.58M323.552 104.791C325.411 104.791 326.922 103.281 326.922 101.422 326.922 99.5635 325.411 98.0532 323.552 98.0532 321.694 98.0532 320.183 99.5635 320.183 101.422 320.183 103.281 321.694 104.791 323.552 104.791M352.597 106.418C347.369 94.6841 329.71 102.816 329.71 102.816 344.58 112.227 352.597 106.418 352.597 106.418" fill="#163E64" fill-rule="nonzero" fill-opacity="1" transform="matrix(1.00146 0 0 1 -77.714 -28.0678)"/></g></g></g></g></svg>